# xmcd
#
# Track frame offsets: 
#        150
#        14618
#        27826
#        40631
#        54320
#        67920
#        80680
#        93584
#        106443
#        120148
#        134238
#        147326
#        161266
#        173260
#        186266
#        199390
#        213932
#        227248
#
# Disc length: 3214 seconds
#
# Revision: 2
# Processed by: cddbd v1.5.2PL0 Copyright (c) Steve Scherf et al.
# Submitted via: ExactAudioCopyFreeDBPlugin 1.0
#
DISCID=f20c8c12
DTITLE=Verschiedene - Milestones Of Legends - Delta Blues - CD08 - Ski
DTITLE=p James
DYEAR=2018
DGENRE=Blues
TTITLE0=Skip James - Devil Got My Woman
TTITLE1=Skip James - Cypress Grove Blues
TTITLE2=Skip James - Little Cow and Calf Is Gonna Die Blues
TTITLE3=Skip James - Hard Time Killin' Floor Blues
TTITLE4=Skip James - Drunken Spree
TTITLE5=Skip James - Cherry Ball Blues
TTITLE6=Skip James - Jesus Is a Mighty Good Leader
TTITLE7=Skip James - Illinois Blues
TTITLE8=Skip James - How Long "Buck"
TTITLE9=Skip James - 40' Clock Blues
TTITLE10=Skip James - 22-20 Blues
TTITLE11=Skip James - Hard Luck Child
TTITLE12=Skip James - If You Haven't Any Hay Get on Down the Road
TTITLE13=Skip James - Be Ready When He Comes
TTITLE14=Skip James - Yola My Blues Away
TTITLE15=Skip James - I'm So Glad
TTITLE16=Skip James - What Am I Gonna Do Blues
TTITLE17=Skip James - Special Rider Blues
EXTD=
EXTT0=
EXTT1=
EXTT2=
EXTT3=
EXTT4=
EXTT5=
EXTT6=
EXTT7=
EXTT8=
EXTT9=
EXTT10=
EXTT11=
EXTT12=
EXTT13=
EXTT14=
EXTT15=
EXTT16=
EXTT17=
PLAYORDER=
